<?xml version="1.0" standalone="no"?>
<!DOCTYPE svg PUBLIC "-//W3C//DTD SVG 1.1//EN" "http://www.w3.org/Graphics/SVG/1.1/DTD/svg11.dtd">
<svg xmlns="http://www.w3.org/2000/svg">
<metadata>Generated by Fontastic.me</metadata>
<defs>
<font id="dabang" horiz-adv-x="512">
<font-face font-family="dabang" units-per-em="512" ascent="480" descent="-32"/>
<missing-glyph horiz-adv-x="512" />

<glyph glyph-name="1room" unicode="&#57344;" d="M475 256l-204 201c-4 4-8 7-11 7-4 0-8 0-11-3l-205-205c-7-7-7-15 0-22 7-7 15-7 22 0l25 26 0-194c0-4 0-7 4-11 4-4 7-4 11-4l304 0c3 0 7 0 11 4 3 4 3 7 3 11l0 194 26-26c7-7 14-7 22 0 7 4 7 15 3 22z m-175-91l-81 0 0 80 81 0z"/>
<glyph glyph-name="2room" unicode="&#57345;" d="M475 256l-204 201c-4 4-8 7-11 7-4 0-8 0-11-3l-205-205c-7-7-7-15 0-22 7-7 15-7 22 0l25 26 0-194c0-4 0-7 4-11 4-4 7-4 11-4l304 0c3 0 7 0 11 4 3 4 3 7 3 11l0 194 26-26c7-7 14-7 22 0 7 4 7 15 3 22z m-237-84l-62 0 0 62 62 0z m106 0l-62 0 0 62 62 0z"/>
<glyph glyph-name="3room" unicode="&#57346;" d="M475 256l-204 201c-4 4-8 7-11 7-4 0-8 0-11-3l-205-205c-7-7-7-15 0-22 7-7 15-7 22 0l25 26 0-194c0-4 0-7 4-11 4-4 7-4 11-4l304 0c3 0 7 0 11 4 3 4 3 7 3 11l0 194 26-26c7-7 14-7 22 0 7 4 7 15 3 22z m-248 37l66 0 0-63-66 0z m11-161l-62 0 0 62 62 0z m106 0l-62 0 0 62 62 0z"/>
<glyph glyph-name="angle-down" unicode="&#57347;" d="M432 373l-172-190-172 190c-11 11-26 11-37 4-14-11-14-30-3-41l190-212c3-7 11-11 22-11 11 0 14 4 22 11l190 212c11 11 11 30-4 41-11 7-25 7-36-4z"/>
<glyph glyph-name="angle-left" unicode="&#57348;" d="M380 73l-201 179 201 180c11 7 11 21 0 32-7 11-18 11-29 4l-219-197c-4-4-8-11-8-19 0-7 4-11 8-18l219-197c11-8 22-8 33 0 7 14 7 29-4 36z"/>
<glyph glyph-name="angle-up" unicode="&#57350;" d="M77 132l179 201 179-201c8-11 22-11 33 0 11 7 11 22 0 33l-197 219c-4 0-8 4-15 4-7 0-11-4-18-8l-198-219c-7-11-7-22 0-33 8-11 29-7 37 4z"/>
<glyph glyph-name="apartment" unicode="&#57351;" d="M475 373l-106 99c0 3 0 3-3 3-4 0-4 0-8-3l-98-95-99 95c-4 3-4 3-7 3-4 0-4 0-8-3l-102-99c0 0-4-4-4-7l0-322c0-4 0-4 4-7 4-4 4 0 4 0l424 0c3 0 3 0 7 3 4 4 4 4 4 8l0 318c-4 3-4 3-8 7z m-340-278l-29 0 0 29 29 0z m0 55l-29 0 0 29 29 0z m0 58l-29 0 0 30 29 0z m0 55l-29 0 0 30 29 0z m0 59l-29 0 0 29 29 0z m66-227l-29 0 0 29 29 0z m0 55l-29 0 0 29 29 0z m0 58l-29 0 0 30 29 0z m0 55l-29 0 0 30 29 0z m0 59l-29 0 0 29 29 0z m146-227l-29 0 0 29 29 0z m0 55l-29 0 0 29 29 0z m0 58l-29 0 0 30 29 0z m0 55l-29 0 0 30 29 0z m0 59l-29 0 0 29 29 0z m66-227l-29 0 0 29 29 0z m0 55l-29 0 0 29 29 0z m0 58l-29 0 0 30 29 0z m0 55l-29 0 0 30 29 0z m0 59l-29 0 0 29 29 0z"/>
<glyph glyph-name="blog-circle" unicode="&#57352;" d="M384 274c-11 0-18-7-18-18 0-11 7-18 18-18 11 0 18 7 18 18-3 11-7 18-18 18z m-102 0c-11 0-19-7-19-18 0-11 8-18 19-18 11 3 18 11 18 18 0 11-7 18-18 18z m-154 0c-11 0-18-7-18-18 0-11 7-18 14-18 15 3 22 7 22 18 0 11-7 18-18 18z m128 201c-121 0-219-98-219-219 0-121 98-219 219-219 121 0 219 98 219 219 0 121-98 219-219 219z m-91-245c-11-11-26-18-41-11-3 0-7 4-11 8 0-4 0-4 0-8-11 0-18 0-25 0 0 37 0 74 0 110 7 0 18 0 25 0 0-14 0-29 0-40 11 11 26 11 37 7 11-7 18-14 22-29 4-15 0-26-7-37z m54-11c-11 0-18 0-25 0 0 0 0 0 0 4 0 22 0 40 0 62 0 4 0 11-4 15 0 4-3 7-7 7 0 8 0 15 0 26 11 0 18-4 25-8 4-7 8-14 11-25 0-4 0-7 0-11 0-22 0-44 0-70 0 4 0 0 0 0z m99 15c-7-11-18-15-29-18-4 0-4 0-7 0-15 0-26 3-33 14-11 8-11 19-11 30 0 22 18 36 36 36 15 0 26 0 37-7 11-7 14-18 14-29 0-11 0-19-7-26z m73-55c-3 0-7 0-14 0 0 0-4 0-4 0 0 8 0 15 0 22 4 0 4 0 7 0 8 0 15 4 15 15 0 3 0 7 0 11 0 0-4 0-4-4-11-11-29-11-40 0-11 7-15 22-15 37 0 11 4 22 11 29 11 7 22 11 33 7 4 0 8-3 11-7 0 4 0 4 0 7 8 0 19 0 26 0 0-3 0-3 0-7 0-22 0-40 0-62 0-8 0-15-4-26 4-11-7-18-22-22z"/>
<glyph glyph-name="calendar" unicode="&#57353;" d="M80 48c0-4 0-8 4-8 4-3 7-3 11-3l329 0c4 0 8 0 8 3 3 4 3 4 3 8l0 270-355 0z m245 208l55 0 0-55-55 0z m0-88l55 0 0-55-55 0z m-91 88l55 0 0-55-55 0z m0-88l55 0 0-55-55 0z m-95 88l55 0 0-55-55 0z m0-88l55 0 0-55-55 0z m296 260c-3 4-3 4-7 4l-29 0 0 32c0 4 0 8-4 8-4 3-7 3-11 3l-26 0c-3 0-3 0-7-3-4-4-4-4-4-8l0-29-168 0 0 29c0 4 0 8-3 8-4 3-8 3-11 3l-26 0c-4 0-4 0-7-3-4-4-4-4-4-8l0-29-33 0c-4 0-7 0-7-3-4-4-8-8-8-11l0-63 359 0 0 63c0 3-4 7-4 7z"/>
<glyph glyph-name="camera" unicode="&#57354;" d="M446 369l-91 0-4 8c0 7-4 11-7 14 0 4-4 8-4 8 0 3-7 7-11 11-4 3-7 0-14 0l-110 0c-4 0-8 0-15-4-3 4-3 0-7 0-4-4-7-7-11-15 0-3-4-11-4-14l-3-8-92 0c-18 0-33-14-33-33l0-204c0-19 15-33 33-33l373 0c18 0 33 14 33 33l0 204c0 19-15 33-33 33z m-117-201c-18-18-40-29-69-29-30 0-52 11-70 29-14 15-25 40-25 66 0 26 11 51 29 70 18 18 40 29 69 29 30 0 48-11 66-29 18-19 29-41 29-70 0-29-11-51-29-66z m-69 132c-19 0-33-7-44-18-11-15-19-30-19-48 0-18 8-33 19-44 11-11 25-18 44-18 18 0 33 7 44 18 11 11 18 26 18 44 0 18-7 33-18 48-11 11-26 18-44 18z"/>
<glyph glyph-name="car" unicode="&#57355;" d="M132 154c-8 0-15 3-22 7-4 7-8 11-8 18 0 4 0 4 0 4 0 7 4 14 11 22 8 7 15 11 22 11 8 0 15-4 22-11 8-8 11-15 11-22 0-4 0-4 0-4 0-7-3-11-7-18-11-4-22-7-29-7z m267 0c-8 0-15 3-22 11-4 3-8 11-8 18 0 0 0 4 0 4 0 7 4 14 11 21 8 8 15 11 22 11 8 0 15-3 22-11 8-7 11-14 11-21 0-4 0-4 0-4 0-7-3-11-7-18-11-8-18-11-29-11z m76 113c0 4-3 7-3 11-4 4-8 7-11 7 0 0-11 8-29 11-4 4-11 15-15 26-7 7-11 14-15 22-3 3-3 7-7 7 0 4-4 4-4 7-3 4-7 8-14 8-4 0-11 3-19 3l-128 0c0 0-3 0-11 0-7-3-11-3-18-7 0 0-4 0-4-4l-73-58c-3 0-11-4-22-7-11-8-29-19-43-30 0 0-4-3-8-11-7-3-11-14-11-25l0-15c0 0 0-4 0-4 0-3 0-11 4-18 0-3 4-7 7-7 4-4 8-4 11-4l26 0c0 4 0 4 0 8 0 25 18 43 44 43 25 0 44-18 44-43 0-4 0-4 0-8l179 0c0 4 0 4 0 8 0 25 18 43 44 43 25 0 44-18 44-43 0-4 0-4 0-8l3 0c0 0 7 0 15 4 3 0 7 4 11 7 3 4 3 11 3 15l0 44c4 3 4 11 0 18z m-193 26l-121 0c0 0 0 0-4 0 0 0 0 3 4 11l47 43c0 0 4 4 8 4 3 0 11 4 14 4 4 0 4 0 8 0l44 0z m109 0c-18 0-69 0-87 0l0 62 51 0c7 0 11-4 14-4 0 0 4-4 4-4l18-40c0-3 0-7 0-14 0 3 0 0 0 0z"/>
<glyph glyph-name="cash" unicode="&#57356;" d="M417 435c-7 8-18 15-33 18-33 15-77 22-124 22-33 0-63-3-88-7-26-7-44-15-59-25-11-4-14-11-18-15 0-4-4-4-4-7 0-4 0-4 4-8 0-3 4-7 7-11 8-7 19-14 33-22 30-11 73-18 125-18 33 0 62 4 87 11 26 7 48 15 59 22 11 7 15 11 18 18 0 4 4 4 4 8 0 3 0 3-4 7 0 0-3 4-7 7z m-157-179c-33 0-66 4-92 11-29 7-51 15-69 26 0 0-4 3-4 3l0-36c0-4 0-4 4-8 0-3 3-7 7-11 4-7 15-14 29-18 30-11 73-18 125-18 33 0 62 3 87 7 26 7 48 15 59 22 11 7 15 11 18 18 0 4 4 4 4 8l0 36c-11-7-22-11-33-18-37-11-84-22-135-22z m0-80c-33 0-66 3-92 7-29 7-51 18-69 29 0 0-4 4-4 4l0-37c0-3 0-3 4-7 0-4 3-7 7-11 4-7 15-15 29-22 30-11 73-18 125-18 33 0 62 3 87 7 26 4 48 15 59 22 11 7 15 11 18 18 0 4 4 4 4 8l0 36c-11-7-22-11-33-18-37-11-84-18-135-18z m0-85c-33 0-66 4-92 11-29 8-51 15-69 26 0 0-4 4-4 4l0-37c0-4 0-4 4-7 0-4 3-8 7-11 7-8 18-15 33-18 29-11 73-19 124-19 33 0 62 4 88 8 26 7 48 14 59 21 11 8 14 11 18 19 0 3 4 3 4 7l0 37c-11-8-22-11-33-19-41-14-88-22-139-22z m0 242c-33 0-66 3-92 11-29 7-51 14-69 25 0 0-4 4-4 4l0-29c0-4 0-4 4-8 0-3 3-7 7-11 4-7 15-14 29-18 30-11 73-18 125-18 33 0 62 4 87 7 26 8 48 15 59 22 11 7 15 11 18 18 0 4 4 4 4 8l0 29c-11-7-22-11-33-18-37-11-84-22-135-22z"/>
<glyph glyph-name="chart" unicode="&#57357;" d="M421 406c-4 4-4 4-8 4l-66 0c4-4 8-8 11-15 4-7 8-18 8-29 0-4 0-8-4-8-4 0-4-3-7-3l-190 0c-4 0-8 0-8 3-3 4-3 4-3 8 0 11 3 22 7 29 4 7 7 11 11 15l-62 0c-4 0-8 0-8-4-3-4-7-7-7-7l0-348c0-3 0-7 4-7 3-7 7-7 11-7l303 0c4 0 8 0 8 3 0 4 3 4 3 8l0 351c0 0-3 3-3 7z m-242-263l-22 0 0 22 22 0z m0 58l-22 0 0 22 22 0z m0 59l-22 0 0 22 22 0z m183-117l-157 0 0 22 157 0z m0 58l-157 0 0 22 157 0z m0 59l-157 0 0 22 157 0z m-22 120c0 0 0 4-4 4-3 4-7 11-11 15-7 3-14 7-21 11-8 3-11 3-19 7-3 0-7 4-7 7 0 4 0 8 0 11 7 4 7 8 7 15 0 7-3 14-7 18-4 4-11 7-18 7-8 0-15-3-19-7-3-4-7-11-7-18 0-7 4-11 4-15 3-3 3-7 0-11 0-3-4-7-8-7-3 0-11-4-18-7 0-4-4-4-7-8-11-3-18-11-22-18 0 0 0-4-4-4z"/>
<glyph glyph-name="chat" unicode="&#57358;" d="M479 227c0 29-15 58-40 77-26 18-55 29-92 29-7 14-22 29-36 40-29 22-70 37-114 37-43 0-84-15-113-37-25-22-44-55-44-91 0-30 15-59 37-81 22-18 51-33 84-40 0 0 0-4-4-4 0-3-7-7-11-7 0-4-3-4-3-4l0-3 0 3c-4 0-8-3-8-7 0-4 4-7 8-7 22 0 36 3 51 11 7 3 14 7 18 14 7 0 15 0 22 4 4-4 7-7 11-11 22-18 51-29 88-33 3-4 11-11 18-15 11-3 26-7 44-7 4 0 7 4 7 7 0 4-3 8-7 8 0 0-7 0-11 3-4 0-4 4-7 4 25 7 51 18 69 33 22 26 33 47 33 77z m-183-26c-3 0-3 0 0 0-7-4-7-4-11-7 0 0-3 0-3-4 0 0-4-3-4-3-4 0-4 0-7-4 0 0-4 0-4-4-4 8-7 4-7 4-4 0-4 0-4 0-4 0-4 0-7-4-11 0-19-3-26-3-4 0-11 0-15 0-3 0-7 0-7-4-4-7-7-11-18-18-4 0-7-4-11-4 4 4 4 11 4 15 0 0 0 3 0 3 0 4-4 8-8 8-29 7-58 18-80 40-19 18-29 40-29 66 0 29 14 54 40 76 25 19 62 33 102 33 40 0 77-11 103-33 11-7 18-14 25-25 0-4 4-8 4-11 0 0 0-4 0-4 0-3 0-3 3-7 0-4 0-4 4-7 0 0 0-4 0-4 0-4 0-7 0-7 0 0 0 0 0-4 0-4 0-7 0-11 0-29-15-55-40-73 0 0 0 0-4-4z m-73 139c-7 0-15 4-22 4-7 0-14 0-22-4-7-4-11-11-14-15-4-3-4-10-4-14 0-4 0-4 4-7 3-4 3-4 7-4 4 0 7 4 11 7 0 8 4 11 7 15 4 3 7 3 11 3 4 0 7 0 11-3 4-4 7-7 7-11 0-4 0-4 0-7 0-4-3-4-3-4 0 0-4-4-8-7-7-4-11-4-11-8-3-3-3-3-7-7 0-4-3-7-3-11 0-4 0-7 3-7 4 0 7-4 7-4 8 0 11 0 11 7 0 4 0 4 0 4 0 0 0 4 0 4 0 0 0 3 4 3 0 0 4 4 4 4 7 7 11 11 14 15 4 0 4 3 8 7 3 4 3 7 3 11 0 7 0 11-3 14-4 4-11 11-15 15z m-22-91c-4 0-7 0-7-4-4-4-7-7-7-11 0-4 0-7 3-7 4-4 4-4 7-4 4 0 8 0 8 4 3 3 3 3 3 7 0 4 0 7-3 7 0 4-4 8-4 8z"/>
<glyph glyph-name="check" unicode="&#57359;" d="M380 428l-172-231-80 92c-18 22-51 26-73 7-22-18-22-51-4-73l125-143c11-11 25-18 40-18 14 0 29 11 40 22l208 282c19 22 11 55-11 73-21 18-54 11-73-11z"/>
<glyph glyph-name="circle" unicode="&#57361;" d="M475 256c0-121-98-219-219-219-121 0-219 98-219 219 0 121 98 219 219 219 121 0 219-98 219-219z"/>
<glyph glyph-name="close" unicode="&#57362;" d="M329 256l135 135c19 19 19 52 0 70-18 18-51 18-69 0l-135-136-136 136c-18 18-51 18-69 0-18-18-18-51 0-70l135-135-135-135c-18-19-18-52 0-70 18-18 51-18 69 0l136 136 135-136c18-18 51-18 69 0 19 18 19 51 0 70z"/>
<glyph glyph-name="close-circle" unicode="&#57363;" d="M256 475c-121 0-219-98-219-219 0-121 98-219 219-219 121 0 219 98 219 219 0 121-98 219-219 219z m99-285c11-11 11-25 0-33-11-11-26-11-37 0l-62 66-66-66c-11-11-25-11-33 0-11 11-11 26 0 33l62 66-62 66c-11 7-11 22 0 33 8 11 22 11 33 0l66-66 66 66c7 11 22 11 33 0 11-11 11-26 0-33l-66-66z"/>
<glyph glyph-name="close-circle-o" unicode="&#57364;" d="M457 256l-14 0c0-51-22-99-55-132-33-33-81-55-132-55-51 0-99 22-132 55-36 33-55 81-55 132 0 51 22 99 55 132 33 33 81 55 132 55 51 0 99-22 132-55 33-33 55-81 55-132l32 0c0 121-98 219-219 219-121 0-219-98-219-219 0-121 98-219 219-219 121 0 219 98 219 219z m-102 99c-11 11-26 11-37 0l-62-66-66 66c-11 11-25 11-33 0-11-11-11-26 0-33l62-66-62-66c-11-7-11-22 0-33 11-11 26-11 33 0l66 66 66-66c7-11 22-11 33 0 11 11 11 26 0 33l-66 66 66 66c7 7 7 22 0 33z"/>
<glyph glyph-name="close-square" unicode="&#57365;" d="M472 472c0 0-4 3-4 3l-424 0c0 0-4 0-4-3-3 0-3-4-3-4l0-424c0-4 0-4 3-4 0 0 4-3 4-3l424 0c4 0 4 0 4 3 0 4 3 4 3 4l0 424c0 0 0 4-3 4z m-77-307c15-15 15-37 0-48-15-15-37-15-48 0l-91 91-91-91c-15-15-37-15-48 0-15 15-15 37 0 48l91 91-91 91c-15 15-15 37 0 48 15 15 37 15 48 0l91-91 91 91c15 15 37 15 48 0 15-15 15-37 0-48l-91-91z"/>
<glyph glyph-name="credit-card" unicode="&#57366;" d="M40 128c0-11 8-18 19-18l398 0c11 0 18 7 18 18l0 146-438 0 0-146z m114 29l87 0 0-18-87 0z m-70 0l48 0 0-18-48 0z m395 216c0 11-7 18-18 18l-402 0c-11 0-19-7-19-18l0-40 439 0z"/>
<glyph glyph-name="delegate" unicode="&#57367;" d="M271 234l3 37-36 0 0-37z m102 241c0 0-4 0 0 0l-230 0c0 0-4 0-4 0 0 0 0-3 0-3l0-428c0-4 0-4 4-4 0 0 3 0 3 0l110 95 110-95c0 0 3 0 3 0 0 0 4 4 4 4l0 431c0-3 0-3 0 0z m-110-51c0 4 0 8 0 11l15 0c0-3 0-7 0-11 0-3 0-7 0-11l0-22 15 0 0 26c0 4 0 7 0 11 0 4 0 7 0 11l14 0c0-4 0-7 0-11 0-4 0-7 0-11l0-88c0-4 0-7 0-11 0-3 0-7 0-11l-14 0c0 4 0 8 0 11 0 7 0 7 0 11l0 51-15 0 0-44c0-3 0-7 0-11 0-3 0-7 0-10l-15 0c0 3 0 7 0 10 0 4 0 8 0 11l0 81c0 4 0 7 0 7z m26-142c4 0 4 0 7 0 4 0 4 0 8 0l0-15c-4 0-4 0-8 0-3 0-3 0-7 0l0-37 4 0c3 0 3 0 7 0 4 0 4 0 7 0l0-11c-3 0-7 0-11 0-3 0-3 0-3 0l-74 0c0 0-3 0-7 0 0 0-4 0-4 0l0 15c4 0 4 0 8 0 3 0 3 0 7 0l4 0 0 37c-4 0-4 0-8 0-3 0-3 0-7 0l0 11c4 0 4 0 7 0 4 0 4 0 8 0z m-84 146l36 0c0 0 4 0 4 0 0 0 4 0 4 0l0-15c0 0-4 0-4 0 0 0 0 0-4 0 0 0 0 0-3 0 0 0 0 0-4 0l-11 0 0-58 11 0c4 0 4 0 7 0 4 0 4 0 8 0 3 0 3 0 7 0 4 0 4 0 4 0l0-15c0 0-4 0-8 0-3 0-3 0-7 0-4 0-7 0-7 0-4 0-8 0-8 0 0 0-3 0-3 0 0 0-4 0-8 0-3 0-3 0-7 0l0 73c0 4 0 4 0 8-7 3-7 7-7 7z m110-252c-4 0-8 0-11 0-4 0-8 0-11 0l-74 0c-3 0-7 0-11 0-3 0-7 0-11 0l0 14c4 0 8 0 11 0 4 0 8 0 11 0l8 0 0 11c0 0 0 4 0 4 0 0 0 3 0 3 0 0 0 4 0 4 0 0 0 4 0 4l14 0c0-4 0-4 0-8 0-3 0-3 0-7l0-11 33 0 0 11c0 0 0 4 0 4 0 0 0 3 0 3 0 0 0 4 0 4 0 0 0 4 0 4l15 0c0-4 0-4 0-8 0-3 0-3 0-7l0-14 4 0c3 0 7 0 11 0 3 0 7 0 11 0z"/>
<glyph glyph-name="envelope" unicode="&#57368;" d="M228 242l1 0 1-1c1-1 3-2 5-3 3-3 9-6 13-8 4-1 6-2 8-2 2 0 5 1 8 2 3 1 6 3 9 5 6 3 10 7 10 7l191 165c-2 4-7 7-12 7l-413 0c-5 0-9-3-11-7l190-165z m-191 139l0-252 141 130z m438-252l0 252-141-122z m-178 98l0 0c0 0-3-3-8-6-4-3-10-7-17-10-5-2-10-3-16-3-6 0-11 1-15 3-5 2-9 4-13 7-7 4-13 9-13 9l0 0-22 19-154-142c2-3 6-6 10-6l414 0c4 0 7 2 10 6l-154 142z"/>
<glyph glyph-name="exclamation-circle" unicode="&#57369;" d="M256 475c-121 0-219-98-219-219 0-121 98-219 219-219 121 0 219 98 219 219 0 121-98 219-219 219z m22-358c-7-4-15-7-22-7-7 0-15 3-22 7-7 4-11 15-11 22 0 7 4 15 7 22 8 7 15 11 26 11 7 0 15-4 22-7 7-4 7-15 7-22 0-11-3-19-7-26z m7 212l-11-84c0-11-3-22-7-29 0-8-7-8-15-8-7 0-11 4-14 11-4 4-4 11-4 26l-7 80c0 19 0 33 0 41 0 11 3 22 7 25 4 8 11 11 22 11 11 0 18-3 22-11 4-7 7-18 7-36 0-8 0-19 0-26z"/>
<glyph glyph-name="eye" unicode="&#57370;" d="M479 263c0 0-18 33-55 62-36 30-91 63-164 63-73 0-128-33-165-63-33-32-51-62-55-62-3-3-3-7 0-11 0 0 19-33 55-62 37-29 92-62 165-62 73 0 128 33 164 62 37 29 55 62 55 62 0 0 0 8 0 11z m-219-98c-52 0-92 40-92 91 0 51 40 91 92 91 51 0 91-40 91-91 0-51-40-91-91-91z m0 150c-19 0-33-8-44-19-8-7-15-22-15-40 0-18 7-33 18-44 11-11 26-18 44-18 19 0 33 7 44 18 4 11 11 26 11 44 0 18-7 33-14 44-11 7-26 15-44 15z"/>
<glyph glyph-name="facebook-circle" unicode="&#57371;" d="M256 475c-121 0-219-98-219-219 0-121 98-219 219-219 121 0 219 98 219 219 0 121-98 219-219 219z m59-219l-37 0c0-62 0-135 0-135l-59 0c0 0 0 73 0 135l-25 0 0 48 25 0 0 32c0 22 11 59 59 59l40 0 0-48c0 0-25 0-29 0-4 0-11-3-11-14l0-29 44 0z"/>
<glyph glyph-name="heart" unicode="&#57372;" d="M443 417c-22 22-48 33-74 33-3 0-3 0-7 0 0 0-22 0-44-11-18-7-44-22-58-48-19 26-41 41-59 48-25 11-44 11-47 11-4 0-4 0-8 0-25 0-55-11-73-33-22-22-36-55-36-92 0-29 3-73 36-117 33-47 84-98 183-146 0 0 4 0 4 0 0 0 3 0 3 0 95 48 150 95 180 143 29 44 36 88 36 117 0 40-15 73-36 95z"/>
<glyph glyph-name="home" unicode="&#57373;" d="M475 260l-204 204c-4 0-8 4-11 4-4 0-8 0-11-4l-205-204c-7-8-7-15 0-22 7-8 15-8 22 0l25 25 0-194c0-3 0-7 4-10 4-4 7-4 11-4l106 0c4 0 7 0 11 4 4 3 4 7 4 10l0 139 66 0 0-139c0-3 0-7 3-10 4-4 8-4 11-4l106 0c4 0 8 0 11 4 4 3 4 7 4 10l0 194 25-25c8-8 15-8 22 0 4 7 4 14 0 22z"/>
<glyph glyph-name="home-search" unicode="&#57374;" d="M263 282c-14 0-29-8-40-15-11-11-18-26-18-40 0-15 7-30 14-40 11-11 26-15 41-15 14 0 29 7 40 15 11 10 15 25 15 40 0 14-8 29-15 40-7 7-22 15-37 15z m212-22l-204 204c-4 0-8 4-11 4-4 0-8 0-11-4l-205-204c-7-8-7-15 0-22 7-8 15-8 22 0l25 25 0-194c0-3 0-7 4-10 4-4 7-4 11-4l307 0c4 0 8 0 11 4 4 3 4 7 4 10l0 194 25-25c8-8 15-8 22 0 4 7 4 14 0 22z m-109-139c-4-4-11-4-19 0l-25 25c-4 4-4 8-4 11l-3 8c-15-11-33-19-52-19-22 0-44 8-58 22-15 15-22 37-22 59 0 22 7 44 22 55 14 14 36 25 58 25 22 0 44-7 55-22 15-14 22-33 22-55 0-22-7-40-22-54l4-4c3 0 7 0 11-4l25-25c11-11 11-19 8-22z"/>
<glyph glyph-name="home-star" unicode="&#57375;" d="M475 260l-204 204c-4 0-8 4-11 4-4 0-8 0-11-4l-205-204c-7-8-7-15 0-22 7-8 15-8 22 0l25 25 0-194c0-3 0-7 4-10 4-4 7-4 11-4l307 0c4 0 8 0 11 4 4 3 4 7 4 10l0 194 25-25c8-8 15-8 22 0 4 7 4 14 0 22z m-128-22l-40-37 11-55c0-3 0-3-3-7-4 0-4 0-8 0l-47 26-48-26c-4 0-4 0-7 0-4 0-4 4-4 7l11 55-40 37c-4 3-4 3 0 7 0 4 4 4 7 4l51 7 26 48c0 7 0 7 4 7 3 0 3 0 7-4l22-51 55-7c3 0 3-4 7-4 4 0 0-4-4-7z"/>
<glyph glyph-name="home-up" unicode="&#57376;" d="M472 256l-205 201c-4 4-7 7-11 7-4 0-7 0-11-3l-205-205c-7-7-7-15 0-22 8-7 15-7 22 0l26 26 0-194c0-4 0-7 3-11 4-4 8-4 11-4l308 0c3 0 7 0 11 4 3 4 3 7 3 11l0 194 26-26c7-7 14-7 22 0 3 4 3 15 0 22z m-139-7c-4-4-4-4-4-4l-29 0 0-80c0 0 0-8-4-15 0-4-3-15-11-18-11-11-25-11-29-11l-73 0c0 0-4 0-4 3 0 0 0 4 0 4 0 0 0 4 4 4l7 0c4 0 15 0 22 7 7 4 7 7 11 11 0 4 0 7 0 7l0 88-29 0c0 0 0 0-4 0 0 0-3 4 0 4 0 0 0 0 0 3l66 66c0 0 0 0 4 0l3 0c0 0 4 0 4 0l66-62c0 0 0 0 0-4 0-3 0-3 0-3z"/>
<glyph glyph-name="map-pin" unicode="&#57377;" d="M399 336c0 77-63 139-139 139-77 0-139-62-139-139 0 0 3-98 80-237 0 0 33-62 55-62 22 0 55 62 55 62 84 139 88 237 88 237z m-139-98c-52 0-95 44-95 95 0 51 43 95 95 95 51 0 95-44 95-95 0-51-44-95-95-95z m3 150c-3 0-3 0 0 0-3 0-3 0-3 0l-48-44c0 0 0-4 0-4 0 0 4 0 4 0l7 7 0-43c0 0 0 0 0-4 0 0 0 0 4 0l66 0c0 0 0 0 3 0 4 0 0 0 0 4l0 40 8-8c0 0 3 0 3 0 0 0 0 4 0 4z"/>
<glyph glyph-name="map-pin-o" unicode="&#57378;" d="M394 337c0 76-62 138-138 138-76 0-138-62-138-138l0-1 0 0c0 0 3-97 82-237 0 0 33-62 56-62 23 0 56 62 56 62 79 140 82 237 82 237l0 0z m-138-99c-53 0-95 42-95 95 0 52 42 95 95 95 53 0 95-43 95-95 0-53-42-95-95-95z m49 139c-1 1-3 1-4 1l-93-39c-1-1-2-2-2-4 1-1 2-2 3-2l40-7 3-44c0-2 1-3 2-3 2-1 3 0 4 2l47 92c1 1 1 3 0 4z"/>
<glyph glyph-name="map-view" unicode="&#57379;" d="M260 293l44 84c0 0 0 3 0 3 0 0-4 0-4 0l-84-36c0 0-4 0-4-4 0 0 0-4 4-4l36-7 4-36c0 0 0-4 4 0 0-4 0-4 0 0z m219-227l-58 80c0 4-4 4-8 4l-102 0c62 113 66 194 66 194 0 66-52 117-117 117-66 0-117-55-117-117 0 0 3-81 65-194l-102 0c-4 0-4 0-7-4l-59-80c0-4-3-7 0-7 4 0 4-4 8-4l424 0c3 0 7 0 7 4 0 3 0 3 0 7z m-300 274c0 44 37 81 81 81 44 0 80-37 80-81 0-44-36-80-80-80-44 0-81 36-81 80z m-117-271l48 63 109 0c11-15 30-44 41-44 11 0 33 25 40 44l106 0 47-66-391 0z"/>
<glyph glyph-name="officetel" unicode="&#57380;" d="M479 84c0 0-4 0 0 0l-40 0 0 296c0 0 0 4 0 4 0 0 0 0-4 0l-22 0 0 22c0 0 0 4 0 4 0 0 0 0-3 0l-132 0c0 0-4 0-4 0 0 0 0 0 0-4l0-22-18 0 0 55c0 0 0 4 0 4 0 0 0 0-4 0l-22 0 0 25c0 0 0 4 0 4 0 0 0 0-3 0l-132 0c0 0-4 0-4 0 0 0 0 0 0-4l0-25-22 0c0 0-3 0-3 0 0 0 0 0 0-4l0-355-22 0c0 0-4 0-4 0 0 0 0 0 0-4l0-40c0 0 0-3 0-3 0 0 0 0 4 0l431 0c0 0 4 0 4 0 0 0 0 0 0 3l0 44c0-4 0 0 0 0z m-267 29l-102 0 0 19 102 0z m0 52l-102 0 0 18 102 0z m0 51l-102 0 0 18 102 0z m0 51l-102 0 0 18 102 0z m0 48l-102 0 0 18 102 0z m0 51l-102 0 0 18 102 0z m183-253l-102 0 0 19 102 0z m0 52l-102 0 0 18 102 0z m0 51l-102 0 0 18 102 0z m0 51l-102 0 0 18 102 0z m0 51l-102 0 0 18 102 0z"/>
<glyph glyph-name="pencil" unicode="&#57381;" d="M369 432c0 3-3 3-3 3l-121 40c-7 0-11 0-15-7l-80-267c0 0 0 0 0-4l11-95 7-54c0-4 4-8 8-8 3 0 7 0 11 4l36 44 66 73c0 0 0 0 0 4l84 267c0-4 0 0-4 0z m-157-333c-11 3-22 7-33 11l-11 77 95-30z"/>
<glyph glyph-name="pet" unicode="&#57382;" d="M260 307c0 0 51 0 69-66 4-11 15-44 40-73 0 0 41-58-33-95 0 0-25-14-76-14-52 0-77 14-77 14-73 37-33 95-33 95 22 29 37 59 40 73 22 66 70 66 70 66z m-15 99c7-29-4-59-26-62-25-8-51 14-58 40-7 29 4 62 26 66 25 7 54-18 58-44z m146-15c8 30-3 55-29 62-26 4-51-14-58-43-8-30 3-63 29-66 22-8 51 18 58 47z m-268-74c-16 24-45 31-65 18-20-14-23-44-7-67 16-24 45-31 65-18 20 14 23 44 7 67z m274-3c-16-23-13-53 7-67 20-14 50-6 66 18 15 23 12 53-8 67-20 13-49 6-65-18z"/>
<glyph glyph-name="phone" unicode="&#57383;" d="M141 37c89-10 155 82 155 82 51 61 94 165 94 165 0 0 43 104-13 174 0 0-21 19-34 17 0 0-20 1-34-39l-15-36c0 0-7-21 3-34 0 0 10-12 16-18 0 0 6-6 10-13 9-13 22-39 7-67l-18-33-35-58c-15-26-45-29-60-29-8 0-16 2-16 2-9 2-24 4-24 4-17 2-30-16-30-16l-24-31c-25-34-14-50-14-50 5-12 32-20 32-20z"/>
<glyph glyph-name="photo" unicode="&#57384;" d="M413 369l-365 0c-4 0-4 0-8-3 0 0-3-4-3-8l0-263c0-4 0-4 3-7 0 0 4-4 8-4l365 0c4 0 4 0 8 4 0 0 3 3 3 7l0 267c0 4 0 4-3 7 0 0-4 0-8 0z m-289-47c15 0 30-15 30-29 0-15-15-30-30-30-14 0-29 15-29 30 0 18 15 29 29 29z m117-212l-172 0 96 124 36-51 92 135 106-208z m234 311c0 0-3 3-7 3l-366 0c-3 0-3 0-7-3 0 0-4-4-4-8l0-18 348 0c4 0 4 0 7-4 0 0 4-3 4-7l0-245 22 0c3 0 3 0 7 4 0 0 4 3 4 7l0 263c-4 4-4 8-8 8z"/>
<glyph glyph-name="plus-circle" unicode="&#57385;" d="M260 475c-121 0-220-98-220-219 0-121 99-219 220-219 120 0 219 98 219 219 0 121-99 219-219 219z m109-241l-84 0 0-91-51 0 0 91-84 0 0 44 88 0 0 91 47 0 0-91 88 0 0-44z"/>
<glyph glyph-name="refresh" unicode="&#57386;" d="M461 232c-1 4-4 8-7 10-4 2-9 2-13 0l-72-34c-5-2-8-7-8-12-1-5 2-10 7-12l25-14c-28-45-78-75-136-75-76 0-140 52-157 123-2 11-14 18-25 15-11-2-18-14-15-25 21-89 102-155 197-155 74 0 138 40 173 98l25-13c5-2 11-2 15 1 4 3 6 9 5 14z m-390 35l72 33c5 2 8 7 8 12 1 6-2 11-7 13l-26 13c29 48 80 79 139 79 76 0 140-52 157-123 3-11 14-18 25-15 11 2 18 14 15 25-21 89-101 155-197 155-75 0-140-41-175-102l-25 13c-5 3-11 2-15-1-4-3-6-8-5-13l14-79c1-4 4-8 7-10 4-2 9-2 13 0z"/>
<glyph glyph-name="remove" unicode="&#57387;" d="M296 256l172 172c11 11 11 29 0 40-11 7-29 7-36-4l-176-171-172 171c-11 11-29 11-36 0-8-11-11-25 0-36l171-172-171-172c-11-11-11-29 0-40 11-11 29-11 40 0l168 172 172-172c11-11 29-11 40 0 11 11 11 29 0 40z"/>
<glyph glyph-name="road-view" unicode="&#57388;" d="M369 219c-3 11-7 22-11 33-25-29-62-44-106-44-40 0-76 15-102 41 0-8-4-19-7-30-11-32-22-76-22-117 0-7 0-11 0-18 0-4 3-7 3-7 0 0 15-11 37-22 22-7 55-18 95-18 40 0 73 11 95 18 22 11 37 18 37 22 3 3 3 3 3 7 0 7 0 11 0 18 0 41-11 85-22 117z m-117 8c70 0 125 55 125 124 0 70-55 124-125 124-65 0-120-54-120-124 0-66 55-124 120-124z m-84 142c0 0 26 15 88 15 62 0 88-15 88-15 0 0 7-3 7-22 0-22-7-22-7-22 0 0-26-14-88-14-62 0-88 14-88 14 0 0-7-3-7 19 4 22 7 25 7 25z"/>
<glyph glyph-name="siren" unicode="&#57392;" d="M245 475l29 0 0-84-29 0z m-94-10l34-77-27-11-33 77z m218 1l27-11-33-78-27 12z m55-349c-3 4-7 4-11 4l-22 0c-7 80-25 175-25 179-4 15-11 22-19 33-11 11-22 18-32 22-11 0-19 0-19 0l-73 0c0 0-15 0-29-8-7-3-15-7-22-14-7-11-15-18-18-33 0 0-19-95-30-176l-22 0c-3 0-7 0-11-3-3-4-3-8-3-11l0-55c0-4 0-7 3-11 4-7 8-7 11-7l311 0c4 0 8 0 11 3 4 4 4 8 4 11l0 55c0 4 0 7-4 11z m-223 165c4 40 48 33 48 33 0 0-11-11-11-48 0-40 0-132 0-132l-51 0z m201-216l-285 0 0 29 285 0z"/>
<glyph glyph-name="sort-desc" unicode="&#57393;" d="M475 377c0 3-3 7-7 7l-420 0c-4 0-8-4-11-7 0-4 0-8 0-11l208-234c0-4 4-4 7-4 4 0 4 0 8 4l212 234c3 3 3 7 3 11z"/>
<glyph glyph-name="twitter-circle" unicode="&#57394;" d="M256 475c-121 0-219-98-219-219 0-121 98-219 219-219 121 0 219 98 219 219 0 121-98 219-219 219z m59-347c-8 0-59 0-74 0-14 0-76 22-76 95 0 15 0 26 0 40 0 11 0 26 0 37 0 4 0 7 0 11 0 18 0 40 3 58 4 11 15 15 29 15 33 0 33-33 33-66l92 0c14 0 25-14 25-36 0-22-22-30-36-30l-81 0c0-14 0-25 0-33 0-14 8-29 41-29l51 0c11 0 29-11 29-36 0-26-26-26-36-26z"/>
<glyph glyph-name="user" unicode="&#57395;" d="M457 91c-7 37-29 59-29 59-4 7-15 11-29 18-33 19-84 37-95 40l0 15c11 7 18 18 25 29 4 8 11 15 11 22 11 8 18 19 22 26 4 11 4 18 4 18 0 0 0 4 0 4 0 3 0 7-4 11 0 7 7 25 7 44 0 0 0 18-7 36-4 11-7 19-15 26-7 11-18 14-29 18-3 4-22 18-55 18-11 0-25-3-44-11 0 0-11-7-25-14-11-11-26-22-33-40 0 0-7-22-7-44 0-8 0-11 3-15 0 0 0-4 0-11 0-4 0-4 4-7-4 0-7-8-7-11 0 0 0-4 0-4 0 0 0-7 3-18 4-7 11-18 22-26 4-3 8-14 11-22 7-11 15-22 22-29l0-11c-7-4-29-11-51-22-15-7-29-11-40-18-15-7-22-15-30-22 0 0-22-22-29-59 0 0-7-36-7-51 0 0 0-3 0-3 0 0 4 0 4 0l402 0c0 0 3 0 3 0 0 0 0 3 0 3 0 15-7 51-7 51z"/>
<glyph glyph-name="plus" unicode="&#57396;" d="M455 276l-179 0 0 179c0 11-9 20-20 20-11 0-20-9-20-20l0-179-179 0c-11 0-20-9-20-20 0-11 9-20 20-20l179 0 0-179c0-11 9-20 20-20 11 0 20 9 20 20l0 179 179 0c11 0 20 9 20 20 0 11-9 20-20 20z"/>
<glyph glyph-name="subway" unicode="&#57397;" d="M403 148l0 286c0 23-18 41-41 41l-212 0c-23 0-41-18-41-41l0-286c0-22 17-41 40-41l0-1-30-54c-3-5-1-11 4-14 5-3 11-1 14 4l11 21 216 0 11-21c3-5 9-7 14-4 5 3 7 9 4 14l-30 54 0 1c23 0 40 19 40 41z m-176 289l58 0c5 0 9-4 9-9 0-4-4-8-9-8l-58 0c-5 0-9 4-9 8 0 5 4 9 9 9z m-76-274c0 11 8 19 19 19 10 0 19-8 19-19 0-10-9-19-19-19-11 0-19 9-19 19z m202-80l-194 0 13 23 168 0z m-30 80c0 11 9 19 19 19 11 0 19-8 19-19 0-10-8-19-19-19-10 0-19 9-19 19z m46 109l-226 0 0 115 226 0z"/>
<glyph glyph-name="rotate-square" unicode="&#57390;" d="M285 106c-3 4-7 4-11 7-3 4-7 4-14 4-8 0-11 0-15-4-4 0-7-3-11-7 0 7 4 11 7 15 4 7 8 11 11 14 4 8 8 11 15 15 4 4 11 7 18 7l-3 11c-11 0-19-3-26-11-7-3-15-11-22-18-7-7-11-15-15-22-3-7-3-18-3-29 0-8 0-15 3-19 0-7 4-10 8-14 3-4 7-7 11-11 3-4 11-4 18-4 4 0 11 0 15 4 3 0 7 4 11 7 3 4 7 8 7 11 4 7 7 11 7 18 0 4 0 11-3 15-4 4-4 7-8 11z m-7-37c0-3-4-7-4-7-3-3-3-3-7-3-4 0-7-4-11-4-4 0-7 0-11 4-4 0-4 3-7 7-4 3-4 7-4 11 0 3 0 7 0 11 0 0 0 3 0 3 0 0 0 4 0 4 0 0 4 4 4 4 0 0 3 3 7 3 4 0 4 0 7 4 4 0 4 0 8 0 3 0 7 0 11-4 3 0 3-3 7-3 0-4 4-4 4-8 0-3 0-7 0-11-4-7-4-7-4-11z m-77 26c-4 4-4 4-7 7-4 0-4 4-7 4 3 0 3 4 7 4 3 3 3 3 7 7 0 4 4 4 4 7 0 4 0 8 0 8 0 3 0 7-4 11-4 7-7 11-11 11 0 3-3 3-11 7-3 0-7 0-11 0-3 0-7 0-11 0-3 0-7 0-11-4 0 0-3 0-7-3-4 0-4-4-7-4l7-11c4 0 4 4 7 4 0 0 4 3 8 3 3 0 3 0 7 0 4 0 4 0 7 0 4 0 8 0 8 0 3 0 3 0 7-3 4 0 4-4 4-4 0-4 0-4 0-7 0-4 0-8 0-8 0-3-4-3-4-7-4-4-4-4-7-4-4 0-8 0-11 0 0 0-4 0-4 0-4 0-4 0-4 0l0-11c4 0 4 0 8 0 3 0 3 0 7 0 4 0 7 0 11-3 0-4 0-8 4-11 3-4 3-8 3-11 0-8 0-11-3-15-4-3-8-7-11-7-4-4-11-4-15-4-4 0-7 0-11 0 0 0-4 0-4 0l-14 0 3-11c0 0 4 0 4 0 4 0 4 0 7 0 0 0 4 0 4 0 4 0 11 0 15 0 7 0 14 4 18 8 7 3 11 7 14 14 4 4 8 11 8 18 0 4 0 8 0 11 0 4-4 4-4 4z m172 48c-4 3-7 11-11 14-7 4-15 4-22 4-7 0-11 0-18-4-4-3-7-11-11-14-4-8-4-11-7-19 0-7-4-14-4-22 0-7 0-14 4-22 0-7 3-14 7-18 4-7 7-11 11-14 3-4 11-8 18-8 7 0 15 4 18 8 4 3 8 7 11 14 4 7 4 11 8 18 0 8 3 15 3 22 0 8 0 15 0 22-3 4-3 11-7 19z m-11-59c0-7 0-11-4-15 0-3-3-7-7-10-4-4-7-4-11-4-4 0-7 0-11 4-4 3-4 7-7 10 0 4-4 11-4 15 0 7 0 11 0 18 0 8 0 11 0 19 0 7 0 11 4 14 0 4 3 8 7 11 4 4 7 4 11 4 4 0 7 0 11-4 4-3 4-7 7-11 0-3 4-11 4-14 0-8 0-11 0-19 4-7 4-11 0-18z m77 388c0 3-4 3-7 3l-355 0c-4 0-4 0-8-3-3-4 0-4 0-4l0-256c0-4 0-4 4-7 4-4 0-4 4-4l355 0c3 0 3 0 7 4 0 0 4 3 4 7l0 256c0 0 0 4-4 4z m-139-172l-29-33-15-15 0 30c-4 0-7 0-11 0-26 0-51 7-55 7-29 7-44 18-44 18-7 4-14 11-18 18 0 4-4 11-4 19 0 7 4 18 8 22 3 7 11 11 18 14 0 0 18 11 58 15l4 0 0-18-4 0c0 0 0 0-3 0 0 0-4 0-8 0-3-4-14-8-25-11 0 0 0 0-4 0 0 0-3-4-7-4-4-4-7-7-11-11 0 0 0-4 0-4 0 0 0-3 0-3 0 0 0-4 4-4 3-7 7-11 18-15 18-7 40-10 69-10 4 0 8 0 11 0l0 32z m80 25c0 0-3-7-11-14 0 0-14-15-36-18l-4 0 0 29 4 0c7 0 18 7 18 7 4 0 7 4 7 4 0 0 0 3 0 3 0 0 0 4-3 4 0 11-8 15-15 18-15 8-33 11-55 15l0-22-33 37 0 3 33 37 0-26c15 0 30-3 40-7 15-7 30-11 41-18 7-4 11-11 14-19 0 0 4-7 4-14 0 0 0 0 0-4 0-4 0-7-4-15z"/>
<glyph glyph-name="search" unicode="&#57391;" d="M468 84l-62 62c-7 8-18 11-26 8l-11 11c30 32 48 76 48 124 0 51-22 99-55 132-33 32-80 54-132 54-51 0-98-22-131-54-37-33-55-81-55-132 0-51 22-99 55-132 33-33 80-55 131-55 44 0 88 15 117 44l11-11c-3-11 0-18 8-25l62-62c11-11 29-11 40 0 11 7 11 25 0 36z m-238 77c-36 0-69 15-91 36-22 22-37 55-37 92 0 36 15 69 37 91 22 22 55 37 91 37 37 0 70-15 92-37 22-22 36-55 36-91 0-37-14-70-36-92-26-21-59-36-92-36z"/>
<glyph glyph-name="rotate" unicode="&#57389;" d="M260 274c-4 0-4 0-4-3l0-55c-7 0-15 0-18 0-51 0-92 7-121 18-15 4-26 11-33 18 0 4 0 4-4 8 0 0 0 0 0 3l0 4c0 4 0 4 0 7l0 4c4 7 15 15 22 18 8 0 11 4 15 4 0 0 4 0 4 0 18 7 33 11 44 11 3 0 11 0 11 4 0 0 3 0 3 0l8 0c0 0 3 0 3 3l0 37-7 0c-66-8-99-26-99-26-11-7-22-14-29-25-11-11-15-26-15-41 0-11 4-18 8-25 3-15 14-26 25-33 0 0 29-22 70-33 3 0 47-11 91-11 7 0 15 0 18 0l0-51c4 0 4 0 4 0 0 0 4 0 4 0l25 25 48 55c0 0 0 4 0 4z m219-14c0 3 0 3 0 0l0 3c0 15-7 22-7 26-8 15-15 22-26 29-18 11-40 22-66 29-22 8-47 11-73 11l0 41c0 0 0 3 0 3 0 0-3 0-3 0l-55-62c0 0 0-4 0-4l58-62c0 0 4 0 4 0 0 0 0 0 0 4l0 37c36-4 69-11 95-22 15-8 26-15 29-19 4-3 4-7 4-7 0 0 0 0 0-4 0 0 0 0 0-3 0 0 0 0-4-4-3-4-3-4-11-7-3 0-18-11-33-11l-7 0c0 0-4 0-4-4l0-55 4 0 11 4c37 7 62 29 62 33 15 11 18 22 18 25 4 4 4 15 4 19z"/>
<glyph glyph-name="check-circle" unicode="&#57360;" d="M260 475c-121 0-220-98-220-219 0-121 99-219 220-219 120 0 219 98 219 219 0 121-99 219-219 219z m113-157l-121-153c-3-4-11-8-14-8-8 0-15 4-19 8l-69 84c-7 7-7 22 0 29 11 7 22 7 33-4l55-62 102 132c7 11 22 11 29 3 8-3 11-18 4-29z"/>
<glyph glyph-name="angle-right" unicode="&#57349;" d="M132 432l201-180-201-179c-11-7-11-22 0-33 7-11 22-11 33 0l219 198c4 3 7 11 7 18 0 7-3 11-7 18l-219 198c-11 3-26 3-33-8-11-7-11-21 0-32z"/>
<glyph glyph-name="check-circle-large" unicode="&#57398;" d="M256 475c-121 0-219-98-219-219 0-121 98-219 219-219 121 0 219 98 219 219 0 121-98 219-219 219z m129-151l-129-174c-6-8-15-12-25-13-9 0-19 4-25 11l-77 87c-12 13-11 33 3 45 13 12 33 11 45-3l51-57 105 142c11 14 31 17 45 7 14-11 17-31 7-45z"/>
<glyph glyph-name="check-square-large" unicode="&#57399;" d="M374 475l-236 0c-56 0-101-45-101-101l0-236c0-56 45-101 101-101l236 0c56 0 101 45 101 101l0 236c0 56-45 101-101 101z m11-154l-129-174c-6-8-15-12-25-13-9 0-19 4-25 11l-77 87c-12 13-11 33 3 45 13 12 33 10 45-3l51-57 105 142c11 14 31 17 45 7 15-11 17-31 7-45z"/>
<glyph glyph-name="heart-o" unicode="&#57400;" d="M256 61c-4 0-8 1-11 2-82 41-141 87-174 138-23 36-35 74-34 118 0 37 13 71 36 96 22 23 51 36 80 36 2 0 5 0 7 0 4 0 24-1 46-10 14-6 33-16 50-35 16 19 35 29 49 35 23 9 43 10 48 10 1 0 4 0 6 0 29 0 58-13 80-36 24-25 37-59 37-96 0-44-12-82-35-118-33-51-92-97-174-138-3-1-7-2-11-2z m-103 360c-20 0-42-10-58-27-18-19-28-46-28-75 0-24 3-61 30-102 30-45 83-87 159-125 76 38 129 80 159 125 27 41 30 78 30 102 0 29-10 56-28 75-16 17-38 27-58 27-2 0-3 0-5-1l-1 0c-3 0-18 0-37-8-13-5-33-17-47-39l-13-21-13 20c-15 23-34 35-48 40-18 8-33 8-36 8l-1 0c-2 1-3 1-5 1z"/>
<glyph glyph-name="map" unicode="&#57401;" d="M51 95l117-58 0 380-117 58z m293 380l0-380 117-58 0 380z m-147-438l118 58 0 380-118-58z"/>
<glyph glyph-name="sort-up" unicode="&#57402;" d="M37 135c2-3 5-6 9-6l420 0c4 0 7 3 9 6 1 3 0 7-2 10l-210 234c-2 2-4 3-7 3-3 0-5-1-7-3l-210-234c-2-3-3-7-2-10z"/>
<glyph glyph-name="stop" unicode="&#57403;" d="M138 475l236 0c56 0 101-45 101-101l0-236c0-56-45-101-101-101l-236 0c-56 0-101 45-101 101l0 236c0 56 45 101 101 101z"/>
<glyph glyph-name="th-large" unicode="&#57404;" d="M37 273l202 0 0 202-202 0z m236 202l0-202 202 0 0 202z m-236-438l202 0 0 202-202 0z m236 0l202 0 0 202-202 0z"/>
</font>
</defs>
</svg>
